<?xml version="1.0" encoding="UTF-8" standalone="no"?>
<!-- Created with Inkscape (http://www.inkscape.org/) -->

<svg
   xmlns:dc="http://purl.org/dc/elements/1.1/"
   xmlns:cc="http://creativecommons.org/ns#"
   xmlns:rdf="http://www.w3.org/1999/02/22-rdf-syntax-ns#"
   xmlns:svg="http://www.w3.org/2000/svg"
   xmlns="http://www.w3.org/2000/svg"
   xmlns:sodipodi="http://sodipodi.sourceforge.net/DTD/sodipodi-0.dtd"
   xmlns:inkscape="http://www.inkscape.org/namespaces/inkscape"
   width="52.040051mm"
   height="102.15108mm"
   viewBox="0 0 52.04005 102.15108"
   version="1.1"
   id="svg8"
   inkscape:version="0.92.4 (5da689c313, 2019-01-14)"
   sodipodi:docname="drawing.svg">
  <defs
     id="defs2" />
  <sodipodi:namedview
     id="base"
     pagecolor="#ffffff"
     bordercolor="#666666"
     borderopacity="1.0"
     inkscape:pageopacity="0.0"
     inkscape:pageshadow="2"
     inkscape:zoom="0.7"
     inkscape:cx="-173.7074"
     inkscape:cy="275.84763"
     inkscape:document-units="mm"
     inkscape:current-layer="layer1"
     showgrid="false"
     fit-margin-top="0"
     fit-margin-left="0"
     fit-margin-right="0"
     fit-margin-bottom="0"
     inkscape:window-width="1920"
     inkscape:window-height="986"
     inkscape:window-x="2869"
     inkscape:window-y="-11"
     inkscape:window-maximized="1" />
  <metadata
     id="metadata5">
    <rdf:RDF>
      <cc:Work
         rdf:about="">
        <dc:format>image/svg+xml</dc:format>
        <dc:type
           rdf:resource="http://purl.org/dc/dcmitype/StillImage" />
        <dc:title></dc:title>
      </cc:Work>
    </rdf:RDF>
  </metadata>
  <g
     inkscape:label="Layer 1"
     inkscape:groupmode="layer"
     id="layer1"
     transform="translate(-1.814295,0.16800439)">
    <path
       style="fill:#000000;stroke-width:0.04679863"
       d="m 24.789234,101.94832 -0.541351,-0.0148 0.01774,-0.64208 c 0.117373,-4.254021 1.123694,-50.768674 1.098804,-50.789322 -0.01861,-0.01552 -5.28986,0.393094 -11.713909,0.907836 -6.4240468,0.514745 -11.7152172,0.92242 -11.758153,0.905944 -0.072046,-0.02764 -0.07807,-0.338688 -0.07807,-4.034178 0,-3.397403 0.00998,-4.008046 0.065801,-4.029471 0.036199,-0.01386 5.0524915,0.40896 11.14733,0.939655 6.094838,0.530701 11.131235,0.95865 11.191993,0.950996 0.09856,-0.01238 0.03049,-0.109742 -0.631704,-0.903087 C 15.709314,35.801 11.526605,28.176477 10.404593,21.208749 c -0.242322,-1.504836 -0.280398,-2.019784 -0.282024,-3.814088 -0.0016,-1.766105 0.02178,-2.098538 0.234743,-3.337695 0.910554,-5.2981641 4.194781,-9.7372951 9.006456,-12.1735869 2.446707,-1.23883691 4.788982,-1.85755256 7.654702,-2.02200089 5.060905,-0.2904177 10.032599,1.58365419 13.54553,5.10597819 2.84768,2.8552888 4.532746,6.5395526 4.913304,10.7425496 0.109373,1.207863 0.05869,3.11938 -0.119997,4.525409 -0.887882,6.98687 -5.173839,15.073835 -13.140364,24.793929 -0.726612,0.886546 -0.811852,1.007829 -0.716988,1.020136 0.05922,0.0078 5.08473,-0.398756 11.167817,-0.903198 6.083086,-0.504443 11.088601,-0.906253 11.123365,-0.892912 0.05241,0.02009 0.06321,0.709046 0.06321,4.028476 0,3.653576 -0.0067,4.006777 -0.07607,4.033407 -0.04184,0.01608 -5.301422,-0.38521 -11.687958,-0.891701 -6.386535,-0.506499 -11.675061,-0.925684 -11.752277,-0.931538 l -0.140397,-0.01072 0.01404,0.842375 c 0.0078,0.463309 0.276258,11.913407 0.59668,25.444675 0.320423,13.531263 0.582588,24.740126 0.582588,24.908566 v 0.30627 l -3.03021,-0.0102 c -1.666616,-0.006 -3.273818,-0.0166 -3.57156,-0.0248 z m 6.554807,-0.23422 c -9.4e-5,-0.12227 -0.273297,-11.699169 -0.607124,-25.72646 -0.333828,-14.027292 -0.59173,-25.518709 -0.573119,-25.53649 0.01861,-0.01774 5.288157,0.386722 11.710097,0.89889 6.421944,0.512173 11.723637,0.931625 11.781552,0.932124 l 0.105307,9.69e-4 v -4.001284 c 0,-3.169848 -0.0122,-4.001274 -0.0585,-4.001244 -0.03219,2.4e-5 -0.279621,0.02057 -0.549881,0.0456 -0.270263,0.02508 -5.208686,0.435146 -10.974277,0.911273 -5.76559,0.476131 -10.561869,0.874781 -10.658397,0.885897 -0.09653,0.01109 -0.164844,0.003 -0.151798,-0.01811 0.01312,-0.0211 0.0033,-0.04542 -0.02179,-0.05405 -0.02502,-0.0087 0.145885,-0.247351 0.379807,-0.530482 7.628486,-9.233479 11.894068,-16.78985 13.280603,-23.526246 0.365275,-1.77466 0.492905,-3.174584 0.457124,-5.013828 -0.03989,-2.050756 -0.274238,-3.493732 -0.858191,-5.28441 C 42.84622,6.3015646 38.563712,2.2032127 33.005578,0.59521286 30.168364,-0.22560407 27.232098,-0.33527017 24.207438,0.26663405 19.355623,1.2321275 15.221542,4.0247142 12.688924,8.0474288 c -1.149597,1.8259795 -1.986026,4.1053232 -2.331073,6.3523862 -0.3968888,2.584685 -0.249555,5.516493 0.424494,8.447007 1.515585,6.589203 5.632879,13.716314 13.044544,22.580333 0.322828,0.386088 0.566711,0.709043 0.541961,0.717674 -0.02474,0.0087 -0.03433,0.03296 -0.02129,0.05405 0.01312,0.0211 -0.05527,0.02908 -0.151798,0.01774 -0.150209,-0.01755 -22.2170063,-1.936091 -22.2690889,-1.936091 -0.010348,0 -0.018774,1.80058 -0.018774,4.001284 v 4.001283 l 0.1287004,-0.0015 c 0.07079,-4.85e-4 5.3514221,-0.41986 11.7347525,-0.931302 6.383332,-0.511446 11.622257,-0.914745 11.642057,-0.896226 0.01979,0.0185 -0.217121,11.355748 -0.526486,25.193846 -0.309365,13.838091 -0.562481,25.403147 -0.562481,25.700097 v 0.53991 l 1.181666,0.0133 c 0.649914,0.007 2.229369,0.0183 3.509895,0.0242 l 2.328231,0.0109 -1.75e-4,-0.22229 z M 26.54733,41.901622 C 21.593647,37.269254 18.071183,32.212686 16.140445,26.962336 15.00051,23.862445 14.44253,20.645087 14.509998,17.561022 c 0.04248,-1.942253 0.342764,-3.392747 1.044297,-5.044539 1.704286,-4.0128241 5.500889,-6.9517379 9.986882,-7.7307528 1.727085,-0.2999204 3.662305,-0.2731491 5.308483,0.07343 2.48091,0.5223156 4.631287,1.638692 6.374076,3.3091271 2.075302,1.9891347 3.340857,4.4906697 3.815419,7.5416497 0.136128,0.875174 0.169001,2.694739 0.06619,3.664562 -0.26437,2.494011 -1.199395,5.642815 -2.584294,8.702898 -2.480225,5.480333 -6.26028,10.581687 -10.546345,14.23277 -0.244523,0.208293 -0.476184,0.378821 -0.514802,0.378946 -0.03862,1.41e-4 -0.449274,-0.354241 -0.912574,-0.787491 z m 1.403977,0.338078 c 3.556756,-3.046773 6.694769,-6.969808 9.118473,-11.399602 1.912058,-3.494662 3.28974,-7.210692 3.822296,-10.309901 0.444145,-2.58469 0.26742,-5.00033 -0.539234,-7.370782 -0.242073,-0.711356 -0.817008,-1.91798 -1.215283,-2.550528 C 37.067305,7.3208917 33.609314,5.1860794 29.586267,4.712344 28.878085,4.628952 27.270754,4.616738 26.590554,4.6895918 20.896599,5.2993474 16.335962,9.1221003 14.96843,14.431327 c -0.388223,1.507212 -0.511406,3.17087 -0.376436,5.083946 0.550533,7.803209 4.659902,15.458543 11.978754,22.315188 0.476175,0.446101 0.876303,0.810883 0.889173,0.810617 0.01293,-2.81e-4 0.233993,-0.180865 0.491386,-0.401361 z"
       id="path4529"
       inkscape:connector-curvature="0" />
  </g>
</svg>
